<svg id="Layer_1" data-name="Layer 1" xmlns="http://www.w3.org/2000/svg" viewBox="0 0 390 156" height="30" width="115"><path d="M162,77.42a13.66,13.66,0,0,0,5.57-5.56,16.77,16.77,0,0,0,2.16-8.39,15.36,15.36,0,0,0-4.8-11.56A16.49,16.49,0,0,0,153,47.3H123.85v64.2h31.26A17.75,17.75,0,0,0,168,106.57a16.62,16.62,0,0,0,5.11-12.47A18.5,18.5,0,0,0,170,83.6,14.81,14.81,0,0,0,162,77.42ZM134.53,57.25h15.72A7.79,7.79,0,0,1,156,59.59a8,8,0,0,1,2.32,5.84A7.87,7.87,0,0,1,156,71.24a7.76,7.76,0,0,1-5.72,2.36H134.53ZM159,98.87a8.71,8.71,0,0,1-6.52,2.68H134.53V83h17.94A8.77,8.77,0,0,1,159,85.67a9,9,0,0,1,2.62,6.56A9.12,9.12,0,0,1,159,98.87Z"/><path d="M204.14,62.93a25.59,25.59,0,0,0-12.75,3.22,23.49,23.49,0,0,0-9,8.89A24.64,24.64,0,0,0,179.1,87.6a23.74,23.74,0,0,0,7.48,17.86q7.47,7.17,18.74,7.18A28.57,28.57,0,0,0,217.56,110a25.44,25.44,0,0,0,9.34-7.27l-7-6a16.2,16.2,0,0,1-6,4.68,18.75,18.75,0,0,1-8.29,1.86,16,16,0,0,1-9.88-3.07,14.14,14.14,0,0,1-5.39-8.2h38.44a28.86,28.86,0,0,0,.28-4.09,24.3,24.3,0,0,0-24.9-24.94ZM190.23,83.42a14.79,14.79,0,0,1,5-8,13.54,13.54,0,0,1,8.8-3,13.77,13.77,0,0,1,8.88,3,14.18,14.18,0,0,1,5,8Z"/><rect x="238.12" y="44.48" width="10.45" height="67.02"/><path d="M287.33,62.93q-10.17,0-16,7.54v-26H260.89v67h10.45V85.24a11.87,11.87,0,0,1,3.45-8.91A12.47,12.47,0,0,1,283.88,73a11.45,11.45,0,0,1,8.59,3.32,12,12,0,0,1,3.23,8.76V111.5h10.4V81.65q0-8.46-5.16-13.59T287.33,62.93Z"/><path d="M350.31,64.06V91.23a11,11,0,0,1-3.14,8.23,11.31,11.31,0,0,1-8.31,3.09,11.46,11.46,0,0,1-8.36-3.11,11,11,0,0,1-3.18-8.21V64.06H316.91V92.6q0,9,6,14.54t15.93,5.5q9.86,0,15.86-5.5t6-14.54V64.06Z"/><path d="M83,63.08a7.87,7.87,0,1,0,7.87,7.86A7.87,7.87,0,0,0,83,63.08Zm0,11.16a3.3,3.3,0,1,1,3.3-3.3A3.3,3.3,0,0,1,83,74.24Z"/><path d="M106.33,56.55a7.81,7.81,0,0,0-7.8-8.45H74.36V44A6.29,6.29,0,1,0,69,44V48.1H44.79A7.83,7.83,0,0,0,37,56.54l.93,11.63-8.63,4.37,1.93,19.1,0,.29L40,94.86l.64,8a7.86,7.86,0,0,0,7.8,7.2h29l-7,13.67,20.75-13.38.45-.29h3.14a7.86,7.86,0,0,0,7.8-7.2l.63-8,8.79-2.93,2-19.39-8.63-4.37Zm2,19.13-1.24,12.23-3.3,1.1,1.19-15ZM35,75.68,38.37,74l1.2,15-3.31-1.1ZM69.71,40.33a2.74,2.74,0,0,1-.87-2,2.82,2.82,0,0,1,5.63,0,2.78,2.78,0,0,1-.87,2A2.87,2.87,0,0,1,69.71,40.33ZM101,56.12l-3.69,46.31a2.45,2.45,0,0,1-2.42,2.24H48.47a2.45,2.45,0,0,1-2.42-2.24L42.37,56.12a2.43,2.43,0,0,1,2.42-2.63H98.53a2.4,2.4,0,0,1,1.79.79A2.43,2.43,0,0,1,101,56.12Z"/><path d="M68.52,70.94a7.87,7.87,0,1,0-7.86,7.87A7.87,7.87,0,0,0,68.52,70.94Zm-4.56,0a3.31,3.31,0,1,1-3.3-3.3A3.31,3.31,0,0,1,64,70.94Z"/><path d="M71.65,89.85h-.33a14,14,0,0,1-8.6-3.3L62,85.9l.05,1a9.8,9.8,0,0,0,9.2,9.33l.43,0a9.78,9.78,0,0,0,9.65-9.35l0-1-.74.64A14.14,14.14,0,0,1,71.65,89.85Z"/></svg>