<svg id="Layer_1" data-name="Layer 1" xmlns="http://www.w3.org/2000/svg" viewBox="0 0 350 350"><defs><style>.cls-1{fill:#fff;}</style></defs><path class="cls-1" d="M278.19,147l2.95-37a22.9,22.9,0,0,0-22.8-24.69H182v-15a18.1,18.1,0,1,0-14,0v15H91.69A22.88,22.88,0,0,0,68.87,110l2.95,37L45.1,160.55,51,218.83l27.27,9.07h0l2,25.73a23,23,0,0,0,22.82,21.06h92.22L175,314.49l60-38.71,1.72-1.08h10.14a23,23,0,0,0,22.8-21.06l2.05-25.73h0L299,218.83l5.87-58.28ZM77.05,212.79,64,208.43l-4-39.76L73,162.05l4,50.74ZM164.89,53.6a10.12,10.12,0,1,1,20.23,0,10.12,10.12,0,0,1-20.23,0Zm90.92,198.92a9,9,0,0,1-8.9,8.22H103.12a9,9,0,0,1-8.9-8.22L82.79,108.93a8.94,8.94,0,0,1,8.9-9.64H258.34a9,9,0,0,1,8.89,9.64ZM286,208.43,273,212.78l4-50.72h0l13.06,6.61Z"/><path class="cls-1" d="M212.08,129.09a24.43,24.43,0,1,0,24.43,24.42A24.45,24.45,0,0,0,212.08,129.09Zm12.22,24.42a12.23,12.23,0,1,1-12.22-12.22A12.24,12.24,0,0,1,224.3,153.51Z"/><path class="cls-1" d="M163.32,153.51A24.44,24.44,0,1,0,138.89,178,24.45,24.45,0,0,0,163.32,153.51Zm-12.21,0a12.23,12.23,0,1,1-12.22-12.22A12.24,12.24,0,0,1,151.11,153.51Z"/><path class="cls-1" d="M144.75,205.77c.79,15.95,13.59,28.64,28.87,29.33,16.26.74,30.78-12.31,31.65-29.33a46.5,46.5,0,0,1-60.52,0Z"/></svg>