<svg id="Layer_1" data-name="Layer 1" xmlns="http://www.w3.org/2000/svg" viewBox="0 0 350 350"><path d="M278.19,147.28l2.95-37a22.9,22.9,0,0,0-22.8-24.69H182v-15a18.1,18.1,0,1,0-14,0v15H91.69a22.88,22.88,0,0,0-22.82,24.69l2.95,37L45.1,160.82,51,219.1l27.27,9.07h0l2,25.73A23,23,0,0,0,103.12,275h92.22L175,314.76l60-38.71,1.72-1.08h10.14a23,23,0,0,0,22.8-21.07l2.05-25.73h0L299,219.1l5.87-58.28ZM77.05,213.05,64,208.7l-4-39.76L73,162.32l4,50.73ZM164.89,53.86a10.12,10.12,0,0,1,20.23,0,10.12,10.12,0,0,1-20.23,0Zm90.92,198.93a9,9,0,0,1-8.9,8.22H103.12a9,9,0,0,1-8.9-8.22L82.79,109.2a8.93,8.93,0,0,1,8.9-9.64H258.34a8.94,8.94,0,0,1,8.89,9.64ZM286,208.7,273,213.05l4-50.72h0l13.06,6.62Z"/><path d="M212.08,129.35a24.44,24.44,0,1,0,24.43,24.43A24.46,24.46,0,0,0,212.08,129.35Zm12.22,24.43a12.23,12.23,0,1,1-12.22-12.22A12.24,12.24,0,0,1,224.3,153.78Z"/><path d="M163.32,153.78a24.44,24.44,0,1,0-24.43,24.44A24.46,24.46,0,0,0,163.32,153.78Zm-12.21,0a12.23,12.23,0,1,1-12.22-12.22A12.24,12.24,0,0,1,151.11,153.78Z"/><path d="M144.75,206c.79,16,13.59,28.63,28.87,29.33,16.26.74,30.78-12.32,31.65-29.33a46.5,46.5,0,0,1-60.52,0Z"/></svg>